<svg width="55" height="46" viewBox="0 0 55 46" fill="none" xmlns="http://www.w3.org/2000/svg">
<g filter="url(#filter0_di_201_153)">
<path d="M20.8638 6.02939C21.6169 5.10758 21.6169 3.61316 20.8638 2.69135C20.1106 1.76955 18.8895 1.76955 18.1363 2.69135L6.56487 16.8538C5.81171 17.7755 5.81171 19.27 6.56487 20.1918L18.1363 34.3543C18.8895 35.2761 20.1106 35.2761 20.8638 34.3543C21.6169 33.4325 21.6169 31.9379 20.8638 31.0162L10.656 18.5228L20.8638 6.02939Z" fill="#E14CA8"/>
<path d="M20.8638 6.02939C21.6169 5.10758 21.6169 3.61316 20.8638 2.69135C20.1106 1.76955 18.8895 1.76955 18.1363 2.69135L6.56487 16.8538C5.81171 17.7755 5.81171 19.27 6.56487 20.1918L18.1363 34.3543C18.8895 35.2761 20.1106 35.2761 20.8638 34.3543C21.6169 33.4325 21.6169 31.9379 20.8638 31.0162L10.656 18.5228L20.8638 6.02939Z" fill="url(#paint0_linear_201_153)"/>
<path d="M36.2926 2.69135C35.5394 1.76955 34.3183 1.76955 33.5651 2.69135C32.812 3.61316 32.812 5.10758 33.5651 6.02939L43.7729 18.5228L33.5651 31.0162C32.812 31.9379 32.812 33.4325 33.5651 34.3543C34.3183 35.2761 35.5394 35.2761 36.2926 34.3543L47.864 20.1918C48.6172 19.27 48.6172 17.7755 47.864 16.8538L36.2926 2.69135Z" fill="#E14CA8"/>
<path d="M36.2926 2.69135C35.5394 1.76955 34.3183 1.76955 33.5651 2.69135C32.812 3.61316 32.812 5.10758 33.5651 6.02939L43.7729 18.5228L33.5651 31.0162C32.812 31.9379 32.812 33.4325 33.5651 34.3543C34.3183 35.2761 35.5394 35.2761 36.2926 34.3543L47.864 20.1918C48.6172 19.27 48.6172 17.7755 47.864 16.8538L36.2926 2.69135Z" fill="url(#paint1_linear_201_153)"/>
</g>
<defs>
<filter id="filter0_di_201_153" x="0" y="0" width="54.4289" height="45.0456" filterUnits="userSpaceOnUse" color-interpolation-filters="sRGB">
<feFlood flood-opacity="0" result="BackgroundImageFix"/>
<feColorMatrix in="SourceAlpha" type="matrix" values="0 0 0 0 0 0 0 0 0 0 0 0 0 0 0 0 0 0 127 0" result="hardAlpha"/>
<feOffset dy="4"/>
<feGaussianBlur stdDeviation="3"/>
<feComposite in2="hardAlpha" operator="out"/>
<feColorMatrix type="matrix" values="0 0 0 0 0 0 0 0 0 0 0 0 0 0 0 0 0 0 0.15 0"/>
<feBlend mode="normal" in2="BackgroundImageFix" result="effect1_dropShadow_201_153"/>
<feBlend mode="normal" in="SourceGraphic" in2="effect1_dropShadow_201_153" result="shape"/>
<feColorMatrix in="SourceAlpha" type="matrix" values="0 0 0 0 0 0 0 0 0 0 0 0 0 0 0 0 0 0 127 0" result="hardAlpha"/>
<feOffset dy="1"/>
<feComposite in2="hardAlpha" operator="arithmetic" k2="-1" k3="1"/>
<feColorMatrix type="matrix" values="0 0 0 0 1 0 0 0 0 1 0 0 0 0 1 0 0 0 0.25 0"/>
<feBlend mode="normal" in2="shape" result="effect2_innerShadow_201_153"/>
</filter>
<linearGradient id="paint0_linear_201_153" x1="23.4587" y1="-2.78292" x2="-13.8769" y2="14.6495" gradientUnits="userSpaceOnUse">
<stop stop-color="white" stop-opacity="0"/>
<stop offset="1" stop-color="white" stop-opacity="0.38"/>
</linearGradient>
<linearGradient id="paint1_linear_201_153" x1="50.459" y1="-2.78292" x2="13.1234" y2="14.6495" gradientUnits="userSpaceOnUse">
<stop stop-color="white" stop-opacity="0"/>
<stop offset="1" stop-color="white" stop-opacity="0.38"/>
</linearGradient>
</defs>
</svg>
