<svg width="55" height="52" viewBox="0 0 55 52" fill="none" xmlns="http://www.w3.org/2000/svg">
<g filter="url(#filter0_di_201_146)">
<path d="M48.4573 6.26206V31.8849C48.4573 33.9229 46.8015 35.8334 44.7636 36.0882L44.063 36.1731C39.4352 36.7887 32.3024 39.1451 28.2265 41.3953C27.9505 41.5652 27.6108 41.6288 27.2287 41.6288V7.59946C27.6321 7.59946 28.0354 7.49332 28.3538 7.30226L28.7147 7.06875C32.4934 4.69114 39.2653 2.41968 43.7234 2.03757H43.8507C46.3769 1.82528 48.4573 3.71463 48.4573 6.26206Z" fill="#DA7373"/>
<path d="M48.4573 6.26206V31.8849C48.4573 33.9229 46.8015 35.8334 44.7636 36.0882L44.063 36.1731C39.4352 36.7887 32.3024 39.1451 28.2265 41.3953C27.9505 41.5652 27.6108 41.6288 27.2287 41.6288V7.59946C27.6321 7.59946 28.0354 7.49332 28.3538 7.30226L28.7147 7.06875C32.4934 4.69114 39.2653 2.41968 43.7234 2.03757H43.8507C46.3769 1.82528 48.4573 3.71463 48.4573 6.26206Z" fill="url(#paint0_linear_201_146)"/>
<g opacity="0.4">
<path fill-rule="evenodd" clip-rule="evenodd" d="M27.2286 7.59924V41.6286C26.8677 41.6286 26.4856 41.5649 26.1884 41.3951L26.1035 41.3526C22.0276 39.1236 14.916 36.7885 10.3094 36.1728L9.69378 36.0879C7.65583 35.8332 6 33.9226 6 31.8847V6.24061C6 3.7144 8.05917 1.80383 10.5854 2.01612C15.0434 2.377 21.7941 4.62723 25.5728 6.98361L26.1035 7.30204C26.4219 7.49309 26.8253 7.59924 27.2286 7.59924ZM18.2064 15.9634H13.43C12.5596 15.9634 11.8378 15.2416 11.8378 14.3713C11.8378 13.5009 12.5596 12.7791 13.43 12.7791H18.2064C19.0768 12.7791 19.7986 13.5009 19.7986 14.3713C19.7986 15.2416 19.0768 15.9634 18.2064 15.9634ZM13.43 22.332H19.7986C20.6689 22.332 21.3907 21.6102 21.3907 20.7398C21.3907 19.8695 20.6689 19.1477 19.7986 19.1477H13.43C12.5596 19.1477 11.8378 19.8695 11.8378 20.7398C11.8378 21.6102 12.5596 22.332 13.43 22.332Z" fill="#DA7373"/>
<path fill-rule="evenodd" clip-rule="evenodd" d="M27.2286 7.59924V41.6286C26.8677 41.6286 26.4856 41.5649 26.1884 41.3951L26.1035 41.3526C22.0276 39.1236 14.916 36.7885 10.3094 36.1728L9.69378 36.0879C7.65583 35.8332 6 33.9226 6 31.8847V6.24061C6 3.7144 8.05917 1.80383 10.5854 2.01612C15.0434 2.377 21.7941 4.62723 25.5728 6.98361L26.1035 7.30204C26.4219 7.49309 26.8253 7.59924 27.2286 7.59924ZM18.2064 15.9634H13.43C12.5596 15.9634 11.8378 15.2416 11.8378 14.3713C11.8378 13.5009 12.5596 12.7791 13.43 12.7791H18.2064C19.0768 12.7791 19.7986 13.5009 19.7986 14.3713C19.7986 15.2416 19.0768 15.9634 18.2064 15.9634ZM13.43 22.332H19.7986C20.6689 22.332 21.3907 21.6102 21.3907 20.7398C21.3907 19.8695 20.6689 19.1477 19.7986 19.1477H13.43C12.5596 19.1477 11.8378 19.8695 11.8378 20.7398C11.8378 21.6102 12.5596 22.332 13.43 22.332Z" fill="url(#paint1_linear_201_146)"/>
</g>
</g>
<defs>
<filter id="filter0_di_201_146" x="0" y="0" width="54.4573" height="51.6288" filterUnits="userSpaceOnUse" color-interpolation-filters="sRGB">
<feFlood flood-opacity="0" result="BackgroundImageFix"/>
<feColorMatrix in="SourceAlpha" type="matrix" values="0 0 0 0 0 0 0 0 0 0 0 0 0 0 0 0 0 0 127 0" result="hardAlpha"/>
<feOffset dy="4"/>
<feGaussianBlur stdDeviation="3"/>
<feComposite in2="hardAlpha" operator="out"/>
<feColorMatrix type="matrix" values="0 0 0 0 0 0 0 0 0 0 0 0 0 0 0 0 0 0 0.15 0"/>
<feBlend mode="normal" in2="BackgroundImageFix" result="effect1_dropShadow_201_146"/>
<feBlend mode="normal" in="SourceGraphic" in2="effect1_dropShadow_201_146" result="shape"/>
<feColorMatrix in="SourceAlpha" type="matrix" values="0 0 0 0 0 0 0 0 0 0 0 0 0 0 0 0 0 0 127 0" result="hardAlpha"/>
<feOffset dy="1"/>
<feComposite in2="hardAlpha" operator="arithmetic" k2="-1" k3="1"/>
<feColorMatrix type="matrix" values="0 0 0 0 1 0 0 0 0 1 0 0 0 0 1 0 0 0 0.25 0"/>
<feBlend mode="normal" in2="shape" result="effect2_innerShadow_201_146"/>
</filter>
<linearGradient id="paint0_linear_201_146" x1="51.2506" y1="-3.71138" x2="2.64478" y2="22.3413" gradientUnits="userSpaceOnUse">
<stop stop-color="white" stop-opacity="0"/>
<stop offset="1" stop-color="white" stop-opacity="0.38"/>
</linearGradient>
<linearGradient id="paint1_linear_201_146" x1="30.0218" y1="-3.73572" x2="-18.5955" y2="22.3093" gradientUnits="userSpaceOnUse">
<stop stop-color="white" stop-opacity="0"/>
<stop offset="1" stop-color="white" stop-opacity="0.38"/>
</linearGradient>
</defs>
</svg>
