<svg width="40" height="40" viewBox="0 0 80 80" fill="none" xmlns="http://www.w3.org/2000/svg">
<rect x="0.5" y="0.5" width="79" height="79" rx="39.5" fill="#DBC9FF"/>
<path d="M33.1398 28.9731C33.9534 28.1595 33.9534 26.8405 33.1398 26.0269C32.3262 25.2133 31.0071 25.2133 30.1935 26.0269L17.6935 38.5269C16.8799 39.3404 16.8799 40.6595 17.6935 41.4731L30.1935 53.9731C31.0071 54.7867 32.3262 54.7867 33.1398 53.9731C33.9534 53.1595 33.9534 51.8404 33.1398 51.0269L22.1129 40L33.1398 28.9731Z" fill="#2D3648"/>
<path d="M49.8065 26.0269C48.9929 25.2133 47.6738 25.2133 46.8602 26.0269C46.0466 26.8405 46.0466 28.1595 46.8602 28.9731L57.8871 40L46.8602 51.0269C46.0466 51.8404 46.0466 53.1595 46.8602 53.9731C47.6738 54.7867 48.9929 54.7867 49.8065 53.9731L62.3065 41.4731C63.1201 40.6595 63.1201 39.3404 62.3065 38.5269L49.8065 26.0269Z" fill="#2D3648"/>
<rect x="0.5" y="0.5" width="79" height="79" rx="39.5" stroke="#FCFAFE"/>
</svg>
