<svg width="80" height="80" viewBox="0 0 80 80" fill="none" xmlns="http://www.w3.org/2000/svg">
<rect x="0.5" y="0.5" width="79" height="79" rx="39.5" fill="#FFFAC8"/>
<path fill-rule="evenodd" clip-rule="evenodd" d="M60.223 20.6398C61.0366 19.8262 61.0366 18.5071 60.223 17.6935C59.4094 16.8799 58.0903 16.8799 57.2767 17.6935L38.5913 36.379C36.2849 34.7462 33.5092 33.8654 30.6492 33.8903C27.0987 33.9211 23.7022 35.3453 21.1915 37.856C18.6808 40.3668 17.2566 43.7632 17.2258 47.3138C17.1949 50.8644 18.5598 54.285 21.0265 56.839L21.0421 56.8549C22.2965 58.1262 23.7899 59.1368 25.4365 59.8286C27.083 60.5203 28.8501 60.8795 30.6361 60.8855C32.422 60.8915 34.1915 60.5441 35.8426 59.8634C37.4938 59.1827 38.994 58.1821 40.2568 56.9193C41.5197 55.6564 42.5203 54.1562 43.201 52.5051C43.8817 50.8539 44.229 49.0845 44.223 47.2985C44.217 45.5126 43.8578 43.7455 43.1661 42.0989C42.7469 41.101 42.2105 40.1592 41.5699 39.2929L47.2915 33.5713L52.0684 38.3482C52.882 39.1617 54.201 39.1617 55.0146 38.3482L62.3063 31.0565C63.1199 30.2429 63.1199 28.9238 62.3063 28.1102L57.5294 23.3333L60.223 20.6398ZM37.2627 40.6716C37.2878 40.6964 37.3134 40.7205 37.3395 40.7438C38.1851 41.5969 38.8592 42.6047 39.3247 43.7127C39.8036 44.8527 40.0522 46.0761 40.0564 47.3125C40.0605 48.5489 39.8201 49.7739 39.3488 50.917C38.8776 52.0601 38.1849 53.0987 37.3106 53.973C36.4363 54.8473 35.3977 55.54 34.2546 56.0112C33.1115 56.4825 31.8865 56.723 30.65 56.7188C29.4136 56.7147 28.1902 56.466 27.0503 55.9871C25.9138 55.5097 24.8826 54.8127 24.0158 53.9363C22.313 52.169 21.3709 49.8043 21.3923 47.35C21.4136 44.8919 22.3996 42.5405 24.1378 40.8023C25.876 39.0641 28.2274 38.0782 30.6854 38.0568C33.1356 38.0355 35.4964 38.9743 37.2627 40.6716ZM53.5415 33.9287L50.2378 30.625L54.5832 26.2796L57.8869 29.5833L53.5415 33.9287Z" fill="#2D3648"/>
<rect x="0.5" y="0.5" width="79" height="79" rx="39.5" stroke="#FCFAFE"/>
</svg>
