<svg width="40" height="40" viewBox="0 0 80 80" fill="none" xmlns="http://www.w3.org/2000/svg">
<rect x="0.5" y="0.5" width="79" height="79" rx="39.5" fill="#FFC8DE"/>
<path fill-rule="evenodd" clip-rule="evenodd" d="M41.8682 18.2445C41.5172 17.5335 40.793 17.0833 40 17.0833C39.2071 17.0833 38.4829 17.5335 38.1319 18.2445L32.1786 30.3051L18.8654 32.2511C18.0809 32.3657 17.4295 32.9158 17.1849 33.6699C16.9404 34.4241 17.1451 35.2517 17.7131 35.8049L27.3448 45.1862L25.0717 58.4395C24.9376 59.2211 25.2589 60.0111 25.9006 60.4772C26.5422 60.9433 27.3928 61.0047 28.0947 60.6356L40 54.3747L51.9053 60.6356C52.6072 61.0047 53.4578 60.9433 54.0995 60.4772C54.7411 60.0111 55.0624 59.2211 54.9284 58.4395L52.6553 45.1862L62.287 35.8049C62.8549 35.2517 63.0596 34.4241 62.8151 33.6699C62.5706 32.9158 61.9192 32.3657 61.1347 32.2511L47.8214 30.3051L41.8682 18.2445ZM35.4307 33.1305L40 23.8734L44.5694 33.1305C44.8726 33.7447 45.4584 34.1707 46.1362 34.2698L56.3575 35.7638L48.9631 42.9659C48.4717 43.4445 48.2474 44.1344 48.3633 44.8105L50.108 54.9827L40.9697 50.1769C40.3627 49.8577 39.6374 49.8577 39.0303 50.1769L29.8921 54.9827L31.6367 44.8105C31.7527 44.1344 31.5284 43.4445 31.037 42.9659L23.6425 35.7638L33.8638 34.2698C34.5416 34.1707 35.1274 33.7447 35.4307 33.1305Z" fill="#2D3648"/>
<rect x="0.5" y="0.5" width="79" height="79" rx="39.5" stroke="#FCFAFE"/>
</svg>
