<svg width="80" height="80" viewBox="0 0 80 80" fill="none" xmlns="http://www.w3.org/2000/svg">
<rect x="0.5" y="0.5" width="79" height="79" rx="39.5" fill="#C8FFE7"/>
<path fill-rule="evenodd" clip-rule="evenodd" d="M19.1667 19.1667C18.0161 19.1667 17.0833 20.0994 17.0833 21.25V52.5C17.0833 53.6506 18.0161 54.5833 19.1667 54.5833H33.75C34.8551 54.5833 35.9149 55.0223 36.6963 55.8037C37.4777 56.5851 37.9167 57.6449 37.9167 58.75C37.9167 59.9006 38.8494 60.8333 40 60.8333C41.1506 60.8333 42.0833 59.9006 42.0833 58.75C42.0833 57.6449 42.5223 56.5851 43.3037 55.8037C44.0851 55.0223 45.1449 54.5833 46.25 54.5833H60.8333C61.9839 54.5833 62.9167 53.6506 62.9167 52.5V21.25C62.9167 20.0994 61.9839 19.1667 60.8333 19.1667H48.3333C45.5707 19.1667 42.9211 20.2641 40.9676 22.2176C40.6171 22.5682 40.294 22.9412 40 23.3333C39.706 22.9412 39.3829 22.5682 39.0324 22.2176C37.0789 20.2641 34.4293 19.1667 31.6667 19.1667H19.1667ZM42.0833 51.5331C43.3394 50.808 44.7745 50.4167 46.25 50.4167H58.75V23.3333H48.3333C46.6757 23.3333 45.086 23.9918 43.9139 25.1639C42.7418 26.336 42.0833 27.9257 42.0833 29.5833V51.5331ZM37.9167 51.5331V29.5833C37.9167 27.9257 37.2582 26.336 36.0861 25.1639C34.914 23.9918 33.3243 23.3333 31.6667 23.3333H21.25V50.4167H33.75C35.2255 50.4167 36.6606 50.808 37.9167 51.5331Z" fill="#2D3648"/>
<rect x="0.5" y="0.5" width="79" height="79" rx="39.5" stroke="#FCFAFE"/>
</svg>
