<svg width="80" height="80" viewBox="0 0 80 80" fill="none" xmlns="http://www.w3.org/2000/svg">
<rect x="0.5" y="0.5" width="79" height="79" rx="39.5" fill="#C8E2FF"/>
<path fill-rule="evenodd" clip-rule="evenodd" d="M56.2651 23.2702C56.7191 23.7371 56.8387 24.4471 56.5638 25.0439L42.892 54.7314C42.6173 55.3278 42.0079 55.6824 41.3694 55.6174C40.7309 55.5524 40.201 55.0817 40.0454 54.4415L37.2282 42.851L25.9597 39.9534C25.3372 39.7933 24.8796 39.2482 24.8164 38.5915C24.7532 37.9347 25.098 37.3079 25.6778 37.0254L54.5407 22.9629C55.1209 22.6802 55.8112 22.8032 56.2651 23.2702ZM30.8145 37.9806L38.8493 40.0467C39.3936 40.1866 39.8186 40.6237 39.9546 41.1836L41.9633 49.4479L51.9972 27.66L30.8145 37.9806Z" fill="#2D3648"/>
<rect x="0.5" y="0.5" width="79" height="79" rx="39.5" stroke="#FCFAFE"/>
</svg>
