<svg width="298" height="33" viewBox="0 0 298 33" fill="none" xmlns="http://www.w3.org/2000/svg">
<path d="M66.3394 22.2891L67.377 26H70.9902L65.2773 8.22656H62.1646L56.3418 26H59.9551L61.0049 22.2891H66.3394ZM61.8472 19.3716L63.7148 12.8286L65.5337 19.3716H61.8472ZM82.2207 12.5479C81.3337 12.5479 80.5158 12.7635 79.7671 13.1948C79.0184 13.618 78.3755 14.2039 77.8384 14.9526L77.814 14.6597L77.6797 12.792H74.5181V26H77.9116V18.0654C78.0662 17.6911 78.2616 17.3656 78.4976 17.0889C78.7336 16.8122 79.0184 16.5843 79.3521 16.4053C79.6287 16.2507 79.9421 16.1367 80.292 16.0635C80.6501 15.9821 81.0488 15.9414 81.4883 15.9414C81.9115 15.9414 82.355 15.9699 82.8188 16.0269C83.2909 16.0757 83.7507 16.153 84.1982 16.2588L84.6987 12.8774C84.4302 12.7961 84.0762 12.7228 83.6367 12.6577C83.2054 12.5845 82.7334 12.5479 82.2207 12.5479ZM88.7271 26H91.7056L93.1094 18.9443L93.3779 17.6016L93.6587 18.9443L95.1113 26H98.0898L100.458 12.792H97.3452L96.3687 20.5801L96.1978 21.8618L95.9658 20.6045L94.5376 12.792H92.2671L90.8389 20.6411L90.6069 21.8984L90.4482 20.6411L89.4595 12.792H86.3589L88.7271 26ZM109.174 26.2441C110.451 26.2441 111.558 25.9959 112.494 25.4995C113.43 25.0031 114.114 24.4497 114.545 23.8394L112.848 22.0083C112.458 22.5129 111.949 22.8913 111.322 23.1436C110.696 23.3958 110.049 23.522 109.381 23.522C108.909 23.522 108.474 23.4487 108.075 23.3022C107.676 23.1558 107.322 22.9482 107.013 22.6797C106.712 22.4193 106.472 22.1304 106.293 21.813C106.114 21.4875 105.967 21.0602 105.854 20.5312V20.4946H114.813V19.0542C114.813 18.0858 114.679 17.2028 114.411 16.4053C114.142 15.5996 113.751 14.9119 113.239 14.3423C112.718 13.7726 112.083 13.3332 111.334 13.0239C110.594 12.7065 109.748 12.5479 108.795 12.5479C107.876 12.5479 107.025 12.7147 106.244 13.0483C105.463 13.382 104.787 13.8499 104.218 14.4521C103.648 15.0544 103.205 15.7746 102.887 16.6128C102.57 17.4429 102.411 18.3625 102.411 19.3716V19.8599C102.411 20.7469 102.57 21.5811 102.887 22.3623C103.213 23.1354 103.673 23.8068 104.267 24.3765C104.861 24.9543 105.573 25.41 106.403 25.7437C107.233 26.0773 108.157 26.2441 109.174 26.2441ZM108.771 15.2944C109.202 15.2944 109.581 15.3636 109.906 15.502C110.24 15.6322 110.521 15.8112 110.749 16.0391C110.976 16.2751 111.155 16.5518 111.286 16.8691C111.416 17.1865 111.481 17.5243 111.481 17.8823V18.1509H105.915C105.996 17.7196 106.118 17.3289 106.281 16.979C106.444 16.6291 106.647 16.328 106.891 16.0757C107.127 15.8234 107.404 15.6322 107.721 15.502C108.039 15.3636 108.389 15.2944 108.771 15.2944ZM126.032 26H129.474V25.7925C129.303 25.4588 129.173 25.0601 129.083 24.5962C128.994 24.1323 128.949 23.5464 128.949 22.8384V17.1743C128.949 16.4093 128.807 15.738 128.522 15.1602C128.237 14.5742 127.842 14.09 127.338 13.7075C126.833 13.325 126.235 13.0361 125.543 12.8408C124.86 12.6455 124.119 12.5479 123.322 12.5479C122.435 12.5479 121.645 12.6618 120.954 12.8896C120.27 13.1094 119.692 13.4105 119.22 13.793C118.74 14.1755 118.374 14.619 118.122 15.1235C117.877 15.6281 117.755 16.1611 117.755 16.7227H121.149C121.149 16.4867 121.181 16.271 121.247 16.0757C121.32 15.8804 121.43 15.7135 121.576 15.5752C121.739 15.4206 121.951 15.3026 122.211 15.2212C122.471 15.1317 122.781 15.0869 123.139 15.0869C123.546 15.0869 123.9 15.1398 124.201 15.2456C124.51 15.3433 124.766 15.4857 124.97 15.6729C125.165 15.8519 125.312 16.0675 125.409 16.3198C125.507 16.564 125.556 16.8407 125.556 17.1499V17.9312H123.664C122.687 17.9312 121.82 18.0207 121.063 18.1997C120.315 18.3706 119.684 18.6229 119.171 18.9565C118.602 19.3228 118.174 19.7907 117.89 20.3604C117.605 20.9219 117.462 21.5688 117.462 22.3013C117.462 22.8709 117.576 23.3999 117.804 23.8882C118.032 24.3683 118.349 24.7834 118.756 25.1333C119.163 25.4832 119.647 25.7559 120.209 25.9512C120.779 26.1465 121.401 26.2441 122.077 26.2441C122.492 26.2441 122.878 26.2035 123.236 26.1221C123.594 26.0488 123.924 25.943 124.225 25.8047C124.518 25.6745 124.787 25.5199 125.031 25.3408C125.275 25.1618 125.491 24.9705 125.678 24.7671C125.718 25.0031 125.767 25.2269 125.824 25.4385C125.881 25.6501 125.95 25.8372 126.032 26ZM122.797 23.6196C122.479 23.6196 122.199 23.583 121.955 23.5098C121.719 23.4284 121.519 23.3226 121.356 23.1924C121.194 23.054 121.068 22.8872 120.978 22.6919C120.897 22.4884 120.856 22.2687 120.856 22.0327C120.856 21.7316 120.913 21.4549 121.027 21.2026C121.141 20.9422 121.316 20.7184 121.552 20.5312C121.788 20.3522 122.093 20.2139 122.467 20.1162C122.842 20.0104 123.293 19.9575 123.822 19.9575H125.556V22.228C125.458 22.3989 125.324 22.5698 125.153 22.7407C124.982 22.9035 124.778 23.05 124.542 23.1802C124.306 23.3104 124.042 23.4162 123.749 23.4976C123.456 23.5789 123.139 23.6196 122.797 23.6196ZM136.994 26H140.18L145.197 12.792H141.657L138.764 22.106L138.581 23.0337L138.397 22.106L135.492 12.792H131.952L136.994 26ZM154.218 26.2441C155.495 26.2441 156.602 25.9959 157.538 25.4995C158.474 25.0031 159.158 24.4497 159.589 23.8394L157.892 22.0083C157.501 22.5129 156.993 22.8913 156.366 23.1436C155.74 23.3958 155.093 23.522 154.425 23.522C153.953 23.522 153.518 23.4487 153.119 23.3022C152.72 23.1558 152.366 22.9482 152.057 22.6797C151.756 22.4193 151.516 22.1304 151.337 21.813C151.158 21.4875 151.011 21.0602 150.897 20.5312V20.4946H159.857V19.0542C159.857 18.0858 159.723 17.2028 159.455 16.4053C159.186 15.5996 158.795 14.9119 158.283 14.3423C157.762 13.7726 157.127 13.3332 156.378 13.0239C155.638 12.7065 154.792 12.5479 153.839 12.5479C152.92 12.5479 152.069 12.7147 151.288 13.0483C150.507 13.382 149.831 13.8499 149.262 14.4521C148.692 15.0544 148.249 15.7746 147.931 16.6128C147.614 17.4429 147.455 18.3625 147.455 19.3716V19.8599C147.455 20.7469 147.614 21.5811 147.931 22.3623C148.257 23.1354 148.716 23.8068 149.311 24.3765C149.905 24.9543 150.617 25.41 151.447 25.7437C152.277 26.0773 153.201 26.2441 154.218 26.2441ZM153.815 15.2944C154.246 15.2944 154.625 15.3636 154.95 15.502C155.284 15.6322 155.565 15.8112 155.792 16.0391C156.02 16.2751 156.199 16.5518 156.33 16.8691C156.46 17.1865 156.525 17.5243 156.525 17.8823V18.1509H150.958C151.04 17.7196 151.162 17.3289 151.325 16.979C151.487 16.6291 151.691 16.328 151.935 16.0757C152.171 15.8234 152.448 15.6322 152.765 15.502C153.083 15.3636 153.432 15.2944 153.815 15.2944ZM190.058 20.4336H186.627C186.595 20.9707 186.505 21.4305 186.359 21.813C186.212 22.1955 186.013 22.5088 185.761 22.7529C185.508 22.9971 185.203 23.1761 184.845 23.29C184.487 23.404 184.084 23.4609 183.637 23.4609C183.303 23.4609 182.998 23.4243 182.721 23.3511C182.453 23.2697 182.208 23.1476 181.989 22.9849C181.785 22.8384 181.602 22.6553 181.439 22.4355C181.285 22.2158 181.151 21.9635 181.037 21.6787C180.874 21.2637 180.752 20.7795 180.67 20.2261C180.597 19.6646 180.561 19.0298 180.561 18.3218V15.9048C180.561 15.384 180.585 14.8997 180.634 14.4521C180.683 13.9964 180.76 13.5814 180.866 13.207C181.004 12.7269 181.187 12.3078 181.415 11.9497C181.651 11.5835 181.936 11.3027 182.27 11.1074C182.465 10.9935 182.676 10.908 182.904 10.8511C183.14 10.7941 183.393 10.7656 183.661 10.7656C184.166 10.7656 184.597 10.8348 184.955 10.9731C185.321 11.1034 185.626 11.2987 185.871 11.5591C186.107 11.8276 186.286 12.1613 186.408 12.5601C186.538 12.9588 186.619 13.4227 186.652 13.9517H190.07C189.988 13.0239 189.793 12.1898 189.484 11.4492C189.175 10.7087 188.751 10.082 188.214 9.56934C187.677 9.05664 187.026 8.66195 186.261 8.38525C185.504 8.10856 184.638 7.97021 183.661 7.97021C183.002 7.97021 182.383 8.05566 181.806 8.22656C181.236 8.38932 180.711 8.62533 180.231 8.93457C179.694 9.30078 179.214 9.74837 178.791 10.2773C178.367 10.8063 178.026 11.4085 177.765 12.084C177.537 12.6374 177.366 13.2396 177.252 13.8906C177.139 14.5335 177.082 15.2131 177.082 15.9292V18.3218C177.082 19.0868 177.143 19.811 177.265 20.4946C177.395 21.1782 177.578 21.8049 177.814 22.3745C178.058 22.9442 178.355 23.465 178.705 23.937C179.063 24.409 179.47 24.8118 179.926 25.1455C180.422 25.5036 180.98 25.7803 181.598 25.9756C182.225 26.1628 182.904 26.2563 183.637 26.2563C184.564 26.2563 185.411 26.1221 186.176 25.8535C186.941 25.5768 187.6 25.1862 188.153 24.6816C188.707 24.1771 189.146 23.5667 189.472 22.8506C189.805 22.1344 190.001 21.3288 190.058 20.4336ZM192.389 19.2739V19.5303C192.389 20.4987 192.528 21.3939 192.804 22.2158C193.081 23.0296 193.488 23.7376 194.025 24.3398C194.554 24.9421 195.205 25.4141 195.978 25.7559C196.759 26.0895 197.646 26.2563 198.639 26.2563C199.624 26.2563 200.503 26.0895 201.276 25.7559C202.049 25.4141 202.7 24.9421 203.229 24.3398C203.758 23.7376 204.161 23.0296 204.438 22.2158C204.714 21.3939 204.853 20.4987 204.853 19.5303V19.2739C204.853 18.3136 204.714 17.4266 204.438 16.6128C204.161 15.7909 203.758 15.0788 203.229 14.4766C202.692 13.8743 202.037 13.4023 201.264 13.0605C200.491 12.7188 199.608 12.5479 198.615 12.5479C197.622 12.5479 196.739 12.7188 195.966 13.0605C195.201 13.4023 194.554 13.8743 194.025 14.4766C193.488 15.0788 193.081 15.7909 192.804 16.6128C192.528 17.4266 192.389 18.3136 192.389 19.2739ZM195.783 19.5303V19.2739C195.783 18.7368 195.836 18.2282 195.941 17.748C196.047 17.2679 196.214 16.8447 196.442 16.4785C196.67 16.1123 196.963 15.8234 197.321 15.6118C197.679 15.4002 198.11 15.2944 198.615 15.2944C199.127 15.2944 199.563 15.4002 199.921 15.6118C200.279 15.8234 200.572 16.1123 200.8 16.4785C201.02 16.8447 201.182 17.2679 201.288 17.748C201.394 18.2282 201.447 18.7368 201.447 19.2739V19.5303C201.447 20.0837 201.394 20.6045 201.288 21.0928C201.182 21.5729 201.02 21.992 200.8 22.3501C200.572 22.7163 200.279 23.0052 199.921 23.2168C199.563 23.4284 199.136 23.5342 198.639 23.5342C198.126 23.5342 197.687 23.4284 197.321 23.2168C196.963 23.0052 196.67 22.7163 196.442 22.3501C196.214 21.992 196.047 21.5729 195.941 21.0928C195.836 20.6045 195.783 20.0837 195.783 19.5303ZM207.404 19.2739V19.5303C207.404 20.4987 207.542 21.3939 207.819 22.2158C208.096 23.0296 208.502 23.7376 209.04 24.3398C209.569 24.9421 210.22 25.4141 210.993 25.7559C211.774 26.0895 212.661 26.2563 213.654 26.2563C214.639 26.2563 215.517 26.0895 216.291 25.7559C217.064 25.4141 217.715 24.9421 218.244 24.3398C218.773 23.7376 219.175 23.0296 219.452 22.2158C219.729 21.3939 219.867 20.4987 219.867 19.5303V19.2739C219.867 18.3136 219.729 17.4266 219.452 16.6128C219.175 15.7909 218.773 15.0788 218.244 14.4766C217.707 13.8743 217.051 13.4023 216.278 13.0605C215.505 12.7188 214.622 12.5479 213.629 12.5479C212.637 12.5479 211.754 12.7188 210.98 13.0605C210.215 13.4023 209.569 13.8743 209.04 14.4766C208.502 15.0788 208.096 15.7909 207.819 16.6128C207.542 17.4266 207.404 18.3136 207.404 19.2739ZM210.797 19.5303V19.2739C210.797 18.7368 210.85 18.2282 210.956 17.748C211.062 17.2679 211.229 16.8447 211.457 16.4785C211.684 16.1123 211.977 15.8234 212.335 15.6118C212.694 15.4002 213.125 15.2944 213.629 15.2944C214.142 15.2944 214.577 15.4002 214.936 15.6118C215.294 15.8234 215.587 16.1123 215.814 16.4785C216.034 16.8447 216.197 17.2679 216.303 17.748C216.409 18.2282 216.461 18.7368 216.461 19.2739V19.5303C216.461 20.0837 216.409 20.6045 216.303 21.0928C216.197 21.5729 216.034 21.992 215.814 22.3501C215.587 22.7163 215.294 23.0052 214.936 23.2168C214.577 23.4284 214.15 23.5342 213.654 23.5342C213.141 23.5342 212.702 23.4284 212.335 23.2168C211.977 23.0052 211.684 22.7163 211.457 22.3501C211.229 21.992 211.062 21.5729 210.956 21.0928C210.85 20.6045 210.797 20.0837 210.797 19.5303ZM227.851 20.5435L231.598 26H235.761L230.084 18.2974L235.065 12.792H230.988L227.338 16.7959L226.312 17.9678V7.25H222.919V26H226.312V21.9717L227.851 20.5435ZM249.799 19.5303V19.2739C249.799 18.4764 249.726 17.7277 249.579 17.0278C249.441 16.328 249.225 15.6973 248.932 15.1357C248.745 14.7858 248.529 14.4644 248.285 14.1714C248.041 13.8703 247.768 13.6139 247.467 13.4023C247.093 13.1257 246.666 12.9141 246.186 12.7676C245.714 12.6211 245.193 12.5479 244.623 12.5479C244.208 12.5479 243.821 12.5926 243.463 12.6821C243.113 12.7635 242.788 12.8896 242.487 13.0605C242.275 13.1745 242.076 13.3128 241.889 13.4756C241.701 13.6302 241.527 13.8011 241.364 13.9883V7.25H237.97V26H241.022L241.181 24.5962C241.319 24.7752 241.465 24.9421 241.62 25.0967C241.775 25.2432 241.942 25.3774 242.121 25.4995C242.454 25.7437 242.829 25.9268 243.244 26.0488C243.667 26.179 244.135 26.2441 244.647 26.2441C245.209 26.2441 245.722 26.1709 246.186 26.0244C246.658 25.8861 247.081 25.6826 247.455 25.4141C247.87 25.1292 248.228 24.7712 248.529 24.3398C248.839 23.9085 249.087 23.4284 249.274 22.8994C249.445 22.4193 249.575 21.8984 249.665 21.3369C249.754 20.7673 249.799 20.165 249.799 19.5303ZM246.405 19.2739V19.5303C246.405 19.8721 246.389 20.2017 246.356 20.519C246.332 20.8364 246.287 21.1294 246.222 21.3979C246.141 21.7642 246.019 22.0938 245.856 22.3867C245.701 22.6715 245.498 22.9035 245.246 23.0825C245.067 23.2127 244.855 23.3145 244.611 23.3877C244.367 23.4609 244.094 23.4976 243.793 23.4976C243.443 23.4976 243.13 23.4569 242.853 23.3755C242.584 23.2941 242.348 23.1761 242.145 23.0215C241.974 22.8994 241.824 22.757 241.693 22.5942C241.571 22.4233 241.461 22.2362 241.364 22.0327V16.7715C241.437 16.6169 241.518 16.4744 241.608 16.3442C241.697 16.2059 241.795 16.0838 241.901 15.978C242.121 15.7583 242.385 15.5915 242.694 15.4775C243.004 15.3636 243.362 15.3066 243.769 15.3066C244.07 15.3066 244.338 15.3433 244.574 15.4165C244.81 15.4816 245.022 15.5833 245.209 15.7217C245.494 15.9414 245.705 16.1855 245.844 16.4541C245.99 16.7145 246.108 17.0116 246.198 17.3452C246.271 17.63 246.324 17.9352 246.356 18.2607C246.389 18.5863 246.405 18.924 246.405 19.2739ZM252.448 19.2739V19.5303C252.448 20.4987 252.586 21.3939 252.863 22.2158C253.139 23.0296 253.546 23.7376 254.083 24.3398C254.612 24.9421 255.264 25.4141 256.037 25.7559C256.818 26.0895 257.705 26.2563 258.698 26.2563C259.682 26.2563 260.561 26.0895 261.334 25.7559C262.108 25.4141 262.759 24.9421 263.288 24.3398C263.817 23.7376 264.219 23.0296 264.496 22.2158C264.773 21.3939 264.911 20.4987 264.911 19.5303V19.2739C264.911 18.3136 264.773 17.4266 264.496 16.6128C264.219 15.7909 263.817 15.0788 263.288 14.4766C262.75 13.8743 262.095 13.4023 261.322 13.0605C260.549 12.7188 259.666 12.5479 258.673 12.5479C257.681 12.5479 256.798 12.7188 256.024 13.0605C255.259 13.4023 254.612 13.8743 254.083 14.4766C253.546 15.0788 253.139 15.7909 252.863 16.6128C252.586 17.4266 252.448 18.3136 252.448 19.2739ZM255.841 19.5303V19.2739C255.841 18.7368 255.894 18.2282 256 17.748C256.106 17.2679 256.273 16.8447 256.5 16.4785C256.728 16.1123 257.021 15.8234 257.379 15.6118C257.737 15.4002 258.169 15.2944 258.673 15.2944C259.186 15.2944 259.621 15.4002 259.979 15.6118C260.338 15.8234 260.631 16.1123 260.858 16.4785C261.078 16.8447 261.241 17.2679 261.347 17.748C261.452 18.2282 261.505 18.7368 261.505 19.2739V19.5303C261.505 20.0837 261.452 20.6045 261.347 21.0928C261.241 21.5729 261.078 21.992 260.858 22.3501C260.631 22.7163 260.338 23.0052 259.979 23.2168C259.621 23.4284 259.194 23.5342 258.698 23.5342C258.185 23.5342 257.746 23.4284 257.379 23.2168C257.021 23.0052 256.728 22.7163 256.5 22.3501C256.273 21.992 256.106 21.5729 256 21.0928C255.894 20.6045 255.841 20.0837 255.841 19.5303ZM267.462 19.2739V19.5303C267.462 20.4987 267.601 21.3939 267.877 22.2158C268.154 23.0296 268.561 23.7376 269.098 24.3398C269.627 24.9421 270.278 25.4141 271.051 25.7559C271.833 26.0895 272.72 26.2563 273.712 26.2563C274.697 26.2563 275.576 26.0895 276.349 25.7559C277.122 25.4141 277.773 24.9421 278.302 24.3398C278.831 23.7376 279.234 23.0296 279.511 22.2158C279.787 21.3939 279.926 20.4987 279.926 19.5303V19.2739C279.926 18.3136 279.787 17.4266 279.511 16.6128C279.234 15.7909 278.831 15.0788 278.302 14.4766C277.765 13.8743 277.11 13.4023 276.337 13.0605C275.564 12.7188 274.681 12.5479 273.688 12.5479C272.695 12.5479 271.812 12.7188 271.039 13.0605C270.274 13.4023 269.627 13.8743 269.098 14.4766C268.561 15.0788 268.154 15.7909 267.877 16.6128C267.601 17.4266 267.462 18.3136 267.462 19.2739ZM270.856 19.5303V19.2739C270.856 18.7368 270.909 18.2282 271.015 17.748C271.12 17.2679 271.287 16.8447 271.515 16.4785C271.743 16.1123 272.036 15.8234 272.394 15.6118C272.752 15.4002 273.183 15.2944 273.688 15.2944C274.201 15.2944 274.636 15.4002 274.994 15.6118C275.352 15.8234 275.645 16.1123 275.873 16.4785C276.093 16.8447 276.256 17.2679 276.361 17.748C276.467 18.2282 276.52 18.7368 276.52 19.2739V19.5303C276.52 20.0837 276.467 20.6045 276.361 21.0928C276.256 21.5729 276.093 21.992 275.873 22.3501C275.645 22.7163 275.352 23.0052 274.994 23.2168C274.636 23.4284 274.209 23.5342 273.712 23.5342C273.2 23.5342 272.76 23.4284 272.394 23.2168C272.036 23.0052 271.743 22.7163 271.515 22.3501C271.287 21.992 271.12 21.5729 271.015 21.0928C270.909 20.6045 270.856 20.0837 270.856 19.5303ZM287.909 20.5435L291.657 26H295.819L290.143 18.2974L295.124 12.792H291.046L287.396 16.7959L286.371 17.9678V7.25H282.978V26H286.371V21.9717L287.909 20.5435Z" fill="white"/>
<path d="M16.6637 31C24.7622 31 31.3274 24.5081 31.3274 16.5C31.3274 8.49187 24.7622 2 16.6637 2C8.56516 2 2 8.49187 2 16.5C2 24.5081 8.56516 31 16.6637 31Z" stroke="white" stroke-width="2.5"/>
<path d="M19.4015 21.7397C19.3303 21.5989 19.2698 21.437 19.22 21.2539C19.1701 21.0708 19.1274 20.8772 19.0918 20.673C18.928 20.849 18.7393 21.0145 18.5257 21.1694C18.312 21.3243 18.0735 21.4617 17.81 21.5813C17.5537 21.694 17.2688 21.7821 16.9555 21.8454C16.6422 21.9158 16.304 21.9511 15.9408 21.9511C15.3498 21.9511 14.805 21.8665 14.3066 21.6975C13.8152 21.5285 13.3915 21.2927 13.0355 20.9899C12.6794 20.6871 12.4017 20.328 12.2023 19.9126C12.0029 19.49 11.9033 19.0324 11.9033 18.5395C11.9033 17.3354 12.3554 16.406 13.2598 15.7511C14.1713 15.0892 15.5278 14.7583 17.3294 14.7583H18.985V14.0823C18.985 13.533 18.8034 13.1 18.4402 12.7832C18.0771 12.4592 17.5537 12.2973 16.8701 12.2973C16.2648 12.2973 15.8233 12.4276 15.5456 12.688C15.2679 12.9416 15.129 13.2831 15.129 13.7126H12.1596C12.1596 13.2268 12.2664 12.7656 12.48 12.329C12.7008 11.8924 13.0177 11.5087 13.4307 11.1777C13.8508 10.8467 14.36 10.5863 14.9581 10.3961C15.5634 10.199 16.2541 10.1004 17.0303 10.1004C17.7281 10.1004 18.3761 10.1849 18.9743 10.3539C19.5796 10.5229 20.1029 10.7729 20.5444 11.1037C20.9859 11.4347 21.3313 11.8537 21.5805 12.3606C21.8298 12.8606 21.9544 13.4415 21.9544 14.1034V19.0042C21.9544 19.6168 21.9935 20.1238 22.0719 20.5252C22.1502 20.9265 22.2641 21.2715 22.4137 21.5602V21.7397H19.4015ZM16.571 19.6802C16.8701 19.6802 17.1478 19.645 17.4041 19.5746C17.6605 19.5041 17.8919 19.4126 18.0984 19.2999C18.3049 19.1873 18.4829 19.0605 18.6325 18.9197C18.782 18.7719 18.8995 18.6239 18.985 18.4761V16.5116H17.4682C17.0054 16.5116 16.6102 16.5574 16.2826 16.6488C15.955 16.7334 15.688 16.8566 15.4815 17.0185C15.275 17.1734 15.1219 17.3636 15.0222 17.5889C14.9225 17.8071 14.8727 18.0465 14.8727 18.3071C14.8727 18.7014 15.0115 19.0289 15.2892 19.2894C15.5741 19.5499 16.0013 19.6802 16.571 19.6802Z" fill="white"/>
</svg>
